<?xml version="1.0" standalone="no"?>
<!DOCTYPE svg PUBLIC "-//W3C//DTD SVG 20010904//EN"
 "http://www.w3.org/TR/2001/REC-SVG-20010904/DTD/svg10.dtd">
<svg version="1.0" xmlns="http://www.w3.org/2000/svg"
 width="500.000000pt" height="500.000000pt" viewBox="0 0 500.000000 500.000000"
 preserveAspectRatio="xMidYMid meet">
<metadata>
Created by potrace 1.14, written by Peter Selinger 2001-2017
</metadata>
<g transform="translate(0.000000,500.000000) scale(0.100000,-0.100000)"
fill="#000000" stroke="none">
<path d="M2225 4984 c-473 -57 -898 -231 -1274 -522 -111 -85 -328 -302 -413
-413 -295 -381 -467 -805 -522 -1289 -73 -629 117 -1287 522 -1809 85 -111
302 -328 413 -413 226 -175 497 -321 754 -406 283 -94 487 -126 800 -126 176
0 249 5 363 22 370 58 698 183 1002 382 153 101 256 186 395 325 209 208 350
406 480 670 117 239 190 477 232 760 24 166 24 504 0 670 -68 457 -236 854
-515 1214 -85 111 -302 328 -413 413 -525 407 -1191 597 -1824 522z m710 -139
c143 -27 383 -97 490 -144 454 -198 809 -498 1087 -919 151 -230 278 -551 334
-849 27 -140 28 -163 28 -433 0 -270 -1 -293 -28 -433 -91 -481 -317 -909
-661 -1252 -343 -344 -771 -570 -1252 -661 -140 -27 -163 -28 -433 -28 -270 0
-293 1 -433 28 -793 150 -1442 672 -1768 1421 -46 105 -117 345 -145 490 -26
133 -27 155 -27 435 0 280 1 302 27 435 28 145 99 385 145 490 127 292 295
540 516 760 220 221 468 389 760 516 98 43 342 116 465 140 171 33 251 38 515
34 208 -3 259 -7 380 -30z"/>
<path d="M2453 4808 c-6 -7 -13 -85 -17 -173 -4 -88 -12 -179 -18 -203 -7 -28
-9 -112 -6 -231 4 -156 8 -193 24 -226 10 -22 19 -49 19 -59 0 -21 42 -50 89
-62 29 -7 29 -6 22 26 -3 18 -2 58 4 89 5 31 14 144 19 251 6 120 16 214 26
244 20 64 19 168 -1 237 -20 67 -41 92 -72 86 -15 -3 -26 2 -33 14 -11 22 -42
25 -56 7z"/>
<path d="M3585 4529 c-4 -6 -37 -25 -74 -41 -102 -46 -150 -86 -335 -275 -94
-97 -184 -188 -200 -202 -87 -79 -138 -190 -102 -221 15 -11 24 -10 69 8 29
12 75 26 102 33 100 22 100 22 100 57 0 24 15 49 65 109 169 201 297 313 382
333 64 15 158 63 189 96 49 52 -24 83 -101 44 -43 -22 -70 -19 -50 5 18 22 8
60 -17 63 -11 2 -24 -2 -28 -9z"/>
<path d="M1478 4334 c-28 -28 20 -94 129 -176 84 -64 313 -212 384 -250 34
-17 76 -46 94 -63 37 -38 105 -54 125 -30 18 21 6 83 -21 111 -13 13 -26 24
-30 24 -4 0 -37 21 -72 48 -35 26 -82 58 -106 72 -23 14 -97 61 -165 105 -226
147 -245 157 -289 162 -23 3 -45 1 -49 -3z"/>
<path d="M2420 3665 c-77 -64 -86 -73 -109 -104 -15 -21 -20 -22 -40 -11 -21
11 -26 8 -59 -31 -21 -23 -60 -67 -87 -98 -28 -31 -75 -85 -104 -121 -30 -36
-89 -99 -131 -140 -42 -41 -90 -95 -105 -120 -48 -76 -205 -251 -360 -399 -43
-42 -111 -109 -150 -150 -93 -98 -329 -335 -387 -389 -26 -24 -73 -76 -105
-115 -31 -40 -80 -97 -108 -128 -95 -104 -215 -259 -228 -292 -10 -25 9 -57
34 -57 16 0 19 -4 14 -17 -5 -10 -10 -32 -12 -49 -6 -42 33 -74 89 -74 31 0
46 -6 68 -30 18 -20 38 -30 57 -30 15 0 48 -6 73 -14 37 -11 57 -11 110 -1
165 32 1015 41 1183 13 57 -10 86 -9 175 6 156 26 609 41 765 25 196 -19 365
-22 452 -10 110 17 596 31 615 18 11 -6 31 -4 63 7 26 9 73 16 105 17 31 0 82
8 112 17 l55 18 3 62 c3 63 3 63 -38 66 -21 1 -89 79 -139 159 -23 38 -58 89
-78 115 -20 26 -49 76 -65 111 -17 35 -53 89 -82 120 -81 87 -169 199 -212
271 -58 99 -173 246 -263 338 -23 24 -53 62 -68 85 -14 23 -56 74 -93 112 -37
39 -85 95 -107 125 -23 30 -68 80 -102 110 -164 145 -234 227 -371 432 -55 82
-151 173 -194 184 -14 3 -29 10 -32 15 -3 5 -22 9 -42 9 -30 -1 -49 -11 -102
-55z m159 -223 c10 -20 61 -91 112 -158 52 -66 137 -177 189 -245 126 -165
177 -218 227 -241 37 -16 93 -72 93 -92 0 -4 -14 2 -31 14 -37 27 -186 89
-214 90 -11 0 -40 10 -65 21 -25 12 -66 27 -92 35 -27 8 -48 21 -48 28 0 22
-91 58 -151 58 -119 0 -226 -10 -254 -24 -17 -9 -68 -28 -115 -43 -127 -41
-178 -63 -250 -110 -95 -61 -97 -62 -70 -28 14 17 62 77 108 134 46 57 100
124 121 149 69 82 225 274 276 339 99 126 105 132 126 121 10 -6 27 -27 38
-48z m-395 -819 c-5 -27 -9 -80 -8 -118 1 -64 4 -75 39 -128 40 -61 42 -78 3
-54 -12 8 -43 18 -67 21 -53 8 -96 29 -136 67 -16 15 -56 40 -88 54 -60 28
-65 40 -19 50 15 3 64 33 107 65 44 33 87 60 95 60 8 0 26 7 40 14 40 22 43
19 34 -31z m817 -9 c46 -25 113 -61 149 -81 77 -41 92 -53 64 -53 -10 0 -55
-25 -98 -56 -44 -31 -98 -63 -120 -70 -23 -8 -57 -25 -76 -38 -20 -13 -60 -36
-88 -50 l-53 -27 17 33 c9 18 32 55 51 82 53 74 63 106 65 211 1 52 3 95 3 95
1 0 39 -21 86 -46z m-1359 -223 c4 -10 113 -61 131 -61 12 0 78 -37 87 -49 10
-14 136 -99 190 -129 31 -17 79 -33 110 -37 35 -5 64 -15 78 -28 22 -20 39
-22 272 -31 244 -9 251 -8 312 13 35 13 74 31 88 40 14 10 90 46 170 80 80 35
156 68 170 75 38 17 110 68 110 77 0 5 9 13 19 19 15 8 28 5 58 -12 46 -27 60
-43 72 -86 12 -42 68 -118 156 -212 38 -42 86 -95 105 -119 19 -25 61 -74 93
-110 61 -69 77 -97 77 -135 0 -12 12 -33 26 -47 l26 -24 -184 -14 c-201 -15
-277 -16 -414 -6 -70 5 -110 3 -170 -11 -72 -16 -125 -17 -604 -11 -303 4
-540 11 -560 17 -19 5 -127 10 -240 10 -113 0 -248 5 -300 11 -52 6 -209 14
-347 18 l-253 6 86 90 c226 238 541 581 557 609 18 30 55 65 69 66 3 0 8 -4
10 -9z"/>
<path d="M3585 3699 c-60 -5 -184 -12 -274 -16 l-163 -8 -31 -42 c-17 -24 -28
-46 -24 -49 8 -9 145 -21 394 -35 202 -12 238 -11 400 6 98 10 185 24 193 30
8 7 25 16 37 19 26 8 40 43 24 60 -36 35 -318 53 -556 35z"/>
<path d="M1640 3629 c-36 -5 -149 -13 -252 -18 -103 -6 -196 -15 -207 -20 -29
-16 -35 -47 -15 -80 15 -25 24 -29 79 -35 34 -3 118 -2 186 4 117 10 149 14
294 40 33 5 99 10 148 10 74 0 90 3 107 20 32 32 24 61 -23 79 -32 13 -220 12
-317 0z"/>
<path d="M1655 1210 c-16 -4 -76 -8 -133 -9 -109 -1 -142 -10 -142 -40 0 -10
-10 -30 -21 -45 -47 -59 6 -87 196 -101 43 -3 122 -15 175 -26 119 -24 197
-25 221 -3 16 14 31 15 132 5 85 -8 159 -8 288 1 96 6 282 13 414 14 451 6
750 13 840 21 l90 8 -3 40 c-6 77 -20 102 -65 120 -69 26 -256 20 -363 -12
-57 -16 -136 -10 -244 21 -44 13 -111 16 -355 16 -167 0 -318 -5 -340 -11 -22
-5 -130 -12 -240 -15 -160 -5 -218 -3 -290 10 -97 17 -114 18 -160 6z"/>
<path d="M2635 849 c-68 -13 -312 -16 -410 -5 -69 7 -82 6 -94 -8 -11 -13 -34
-16 -126 -16 -127 0 -185 -16 -185 -50 0 -11 -11 -38 -24 -59 l-25 -38 67 -6
c37 -3 101 -1 142 5 81 12 264 15 400 6 47 -3 233 -7 414 -8 l328 -3 20 31
c16 25 18 39 11 74 l-9 43 -74 3 c-53 2 -80 8 -93 20 -16 14 -43 17 -156 19
-75 1 -158 -3 -186 -8z"/>
<path d="M2100 484 c-6 -16 -15 -41 -21 -56 -8 -19 -7 -32 2 -50 7 -12 12 -25
11 -28 -4 -9 178 -21 348 -24 91 -1 206 -8 255 -16 50 -7 103 -10 117 -7 33 9
45 42 24 66 -22 24 -20 58 4 89 14 16 17 29 11 35 -6 6 -157 12 -375 15 l-365
5 -11 -29z"/>
</g>
</svg>
